Coordinates
version=1
nRows=19
nColumns=34
inDegrees=yes

Units are S.I. units (second, meters, Newtons, ...)
If the header above contains a line with 'inDegrees', this indicates whether rotational values are in degrees (yes) or radians (no).

endheader
time	pelvis_tilt	pelvis_list	pelvis_rotation	pelvis_tx	pelvis_ty	pelvis_tz	hip_flexion_r	hip_adduction_r	hip_rotation_r	knee_angle_r	ankle_angle_r	subtalar_angle_r	mtp_angle_r	hip_flexion_l	hip_adduction_l	hip_rotation_l	knee_angle_l	ankle_angle_l	subtalar_angle_l	mtp_angle_l	lumbar_extension	lumbar_bending	lumbar_rotation	arm_flex_r	arm_add_r	arm_rot_r	elbow_flex_r	pro_sup_r	arm_flex_l	arm_add_l	arm_rot_l	elbow_flex_l	pro_sup_l
      5.45000000	      9.57767069	     -8.31977683	    -69.22634265	      0.20884911	      1.10133168	      0.21236932	     -9.12889669	     -0.40196368	      1.81358173	     11.84016318	     11.18674743	     -6.41353286	      0.00000000	     66.00838368	     -2.90544309	     -1.85651267	     90.10573820	      1.62955578	     -6.45500176	      0.00000000	    -20.37917007	      1.13858328	     -0.23966059	      8.88891037	    -13.65955894	     11.98423179	     46.76800822	    119.74817918	     14.60913466	    -20.49662363	     12.76154122	    103.74613035	    119.74817918
      5.46666670	      9.56589964	     -8.45954045	    -69.59001284	      0.20635725	      1.10126778	      0.20974474	     -9.14173000	     -0.30497375	      2.17887409	     11.68382747	     11.16254018	     -6.16339043	      0.00000000	     64.94403806	     -3.08637419	     -0.52189460	     91.53794754	      1.64053884	     -6.25594013	      0.00000000	    -20.14470092	      1.34045407	     -0.07121343	      8.98287957	    -13.60708956	     12.51986546	     48.11856193	    119.74817918	     14.70472506	    -20.54310005	     12.56667516	    103.78956850	    119.74817918
      5.48333330	      9.43647516	     -8.72854331	    -70.00165170	      0.20321488	      1.10132727	      0.20836122	     -9.24757318	     -0.06807640	      2.42541866	     11.42218497	     11.06306053	     -5.92327079	      0.00000000	     63.58487762	     -3.36524776	      0.93565737	     92.37523449	      1.80785418	     -5.99054133	      0.00000000	    -19.83192669	      1.75336051	      0.19855599	      9.21353368	    -13.59019496	     13.13390631	     49.37070546	    119.74817918	     14.86255616	    -20.59965279	     12.73754904	    104.03015704	    119.74817918
      5.50000000	      9.30951332	     -8.97785268	    -70.37046349	      0.19982137	      1.10147152	      0.20781152	     -9.35542405	      0.16632339	      2.72517584	     11.12495965	     10.92174889	     -5.65206045	      0.00000000	     62.03710936	     -3.67686779	      2.33494553	     92.86040778	      2.02952149	     -5.73381100	      0.00000000	    -19.50818908	      2.07215143	      0.26760308	      9.40760949	    -13.41912061	     13.76705204	     50.40579104	    119.74817918	     14.97993825	    -20.54749144	     13.05101710	    104.06510383	    119.74817918
      5.51666670	      9.04190518	     -9.02444643	    -70.73568921	      0.19731992	      1.10130395	      0.20798902	     -9.14166257	      0.42847363	      2.94740602	     10.97462401	     10.60973629	     -5.44269112	      0.00000000	     59.59123523	     -3.70204552	      3.44450733	     92.65575716	      2.44607504	     -5.64271504	      0.00000000	    -18.94242255	      2.27354067	      0.36222423	      9.92762004	    -13.11619281	     14.29691755	     51.13386193	    119.74817918	     15.23508488	    -20.26163907	     13.29402621	    103.88021611	    119.74817918
      5.53333330	      8.66014087	     -9.06652984	    -71.16820769	      0.19549482	      1.10139231	      0.20912491	     -9.30731287	      0.78500799	      3.23372309	     10.17936660	      9.95305679	     -5.18670093	      0.00000000	     55.73523441	     -3.64790152	      4.22006636	     92.14065476	      2.80749228	     -5.34498435	      0.00000000	    -18.53337901	      2.64119083	      0.79287778	     10.12839787	    -12.99935681	     15.20029335	     51.46298023	    119.74817918	     15.52259633	    -20.02686535	     13.93792635	    103.57568815	    119.74817918
      5.55000000	      8.19625497	     -8.84464774	    -71.45447751	      0.19392527	      1.10167795	      0.20983603	     -9.08259655	      1.12476556	      3.44821669	      9.56070525	      9.20977444	     -4.98020772	      0.00000000	     51.60507197	     -3.48110441	      4.93578394	     90.75797627	      3.16607013	     -5.34964970	      0.00000000	    -18.00450969	      3.07047272	      1.18439457	     10.16676234	    -12.64470281	     16.00049745	     51.20273678	    119.74817918	     15.62728379	    -19.97401531	     14.73177652	    103.31520064	    119.74817918
      5.56666670	      7.79063153	     -8.83289621	    -71.66950619	      0.19245230	      1.10233791	      0.21129552	     -9.23680386	      1.41355786	      3.65514965	      8.69443779	      8.49290074	     -4.53927625	      0.00000000	     46.83358042	     -3.87781814	      5.84648154	     86.44808796	      3.81039926	     -5.31618104	      0.00000000	    -17.28956191	      3.25374908	      1.35447950	      9.84946693	    -12.32244061	     16.39583878	     50.79697316	    119.74817918	     14.90013024	    -19.81011230	     15.01126265	    102.79458269	    119.74817918
      5.58333330	      7.58295012	     -8.68069594	    -71.90068009	      0.19160456	      1.10320897	      0.21142320	     -9.21909778	      1.44399439	      3.74967498	      8.04571666	      8.03934949	     -4.15084339	      0.00000000	     42.04645813	     -4.37310092	      6.51906520	     80.20200314	      4.41037184	     -5.62684718	      0.00000000	    -16.71292421	      3.43028514	      1.28169249	      9.31350633	    -12.16148676	     16.64183467	     51.24748559	    119.74817918	     13.86075421	    -19.81638608	     15.38942648	    102.31567250	    119.74817918
      5.60000000	      7.52183919	     -8.55456378	    -72.27336805	      0.18957161	      1.10399489	      0.21112932	     -9.12653251	      1.39594963	      3.68890425	      7.67452936	      7.71269704	     -3.87809751	      0.00000000	     37.59228953	     -4.61209840	      6.99405254	     76.08401560	      4.75762937	     -6.11258409	      0.00000000	    -16.07067686	      3.16697448	      1.11831915	      8.44419548	    -12.13217694	     16.35758057	     52.68082782	    119.74817918	     12.77188073	    -20.00840047	     15.83640784	    101.93226826	    119.74817918
      5.61666670	      7.13561322	     -8.09597556	    -72.73713890	      0.18848273	      1.10360813	      0.21056194	     -8.64402425	      1.55634852	      3.74624327	      7.15431243	      7.38279806	     -3.65867824	      0.00000000	     34.85229071	     -4.55366583	      7.06401368	     75.28906663	      4.94646379	     -6.31273736	      0.00000000	    -15.05288936	      3.45339192	      0.66098423	      7.93650727	    -12.10065494	     16.50524504	     54.71813342	    119.74817918	     11.62108886	    -20.14729373	     16.18302833	    101.44728934	    119.74817918
      5.63333330	      6.89459128	     -8.28190573	    -73.14001920	      0.18839769	      1.10427733	      0.21064095	     -9.07453552	      1.70922239	      3.93178080	      6.38154903	      7.01619028	     -3.22730761	      0.00000000	     31.07229559	     -4.44030280	      6.73185117	     73.83232119	      4.99190250	     -6.44213903	      0.00000000	    -14.69287765	      3.74435336	      0.72085671	      7.10033533	    -12.23009771	     15.92927293	     57.31921590	    119.74817918	     11.12635517	    -20.22789848	     17.20717423	    100.87631544	    119.74817918
      5.65000000	      6.46554798	     -7.86307015	    -73.54298065	      0.19034981	      1.10375942	      0.21105185	     -8.65462474	      1.80685162	      4.13143414	      5.94528474	      6.71993095	     -2.93648985	      0.00000000	     27.56021288	     -4.21372644	      6.14331197	     71.51770210	      5.39230784	     -6.34289964	      0.00000000	    -13.58308849	      4.09182507	     -0.48046101	      5.83888011	    -12.32174937	     15.39693505	     60.02642503	    119.74817918	     10.01058035	    -20.25880940	     17.64418300	    101.00363736	    119.74817918
      5.66666670	      6.42743567	     -8.14970656	    -74.27035527	      0.19289159	      1.10483659	      0.21148537	     -9.08588430	      1.60912206	      4.38800599	      5.49840034	      6.47810845	     -2.36262414	      0.00000000	     23.26262166	     -4.10508234	      5.10841830	     68.35811931	      5.75182472	     -6.16512880	      0.00000000	    -13.29015661	      4.06586552	     -1.30928311	      3.65842671	    -12.13818428	     13.56856475	     63.43046746	    119.74817918	      9.28082390	    -20.47522889	     18.15959510	    101.32752085	    119.74817918
      5.68333330	      6.21467650	     -7.82133517	    -75.04451709	      0.19683312	      1.10535460	      0.20943501	     -8.50908743	      1.38058020	      4.76210507	      5.63404264	      6.42648126	     -1.94286492	      0.00000000	     20.03435413	     -4.13449206	      4.41823057	     64.66341609	      6.33958892	     -5.62312216	      0.00000000	    -12.72522071	      4.06091249	     -2.91702062	      1.51175615	    -12.42997517	     12.67018412	     67.18899287	    119.74817918	      8.04155361	    -20.46718773	     18.32913265	    101.96918350	    119.74817918
      5.70000000	      6.06584215	     -7.39464403	    -76.13889198	      0.20291756	      1.10599144	      0.20737951	     -7.54908091	      0.94388145	      5.26339975	      6.22343038	      6.45108688	     -1.38251521	      0.00000000	     16.93206301	     -4.44215196	      3.85176922	     60.75597020	      7.19996211	     -4.53625182	      0.00000000	    -12.46306464	      3.53012221	     -4.62148991	     -0.59526552	    -13.15302474	     11.69808661	     71.08404083	    119.74817918	      7.72509329	    -20.59617862	     18.90533613	    101.96853138	    119.74817918
      5.71666670	      5.97771776	     -7.09184421	    -77.20068831	      0.21150780	      1.10669421	      0.20520223	     -6.30703051	      0.44658889	      5.76865809	      7.50349443	      6.81675007	     -1.03970947	      0.00000000	     14.00388854	     -4.90573163	      3.23720632	     56.14978566	      8.14275842	     -3.40665378	      0.00000000	    -12.14161120	      3.81638625	     -5.66078671	     -1.78705969	    -13.68640399	     10.90829641	     74.15818695	    119.74817918	      7.98117293	    -20.75501927	     19.62777094	    100.47483417	    119.74817918
      5.73333330	      5.92555885	     -7.00106717	    -78.20110741	      0.21959911	      1.10738372	      0.20449790	     -5.06463342	      0.00170767	      6.14768089	      9.20545619	      7.41761691	     -0.83814419	      0.00000000	     11.38563110	     -5.58936963	      2.75340770	     51.58661385	      8.98654369	     -2.21267979	      0.00000000	    -11.83804756	      4.08372717	     -6.55229528	     -2.75444085	    -14.12690689	      9.83341261	     77.57052490	    119.74817918	      8.21001016	    -21.14268201	     20.41689763	     99.50055943	    119.74817918
      5.75000000	      5.98336859	     -7.02378273	    -78.96226206	      0.22741583	      1.10766022	      0.20660737	     -4.43309899	     -0.48299706	      6.48952340	     10.34230096	      8.06266733	     -0.57162528	      0.00000000	      8.97886830	     -6.33002596	      2.18347427	     47.16885790	      9.48253043	     -1.17063154	      0.00000000	    -11.56782980	      4.18391978	     -7.37191606	     -3.36169963	    -14.61598968	      8.93140515	     80.74713395	    119.74817918	      8.85873740	    -21.64649089	     21.65989364	     98.28187022	    119.74817918
